<svg width="76" height="76" viewBox="0 0 76 76" fill="none" xmlns="http://www.w3.org/2000/svg">
<path d="M51.1763 22.1738L38.8417 3.09492C38.5133 2.58671 37.9494 2.28 37.3449 2.28C36.7404 2.28 36.1765 2.58671 35.8492 3.09492L23.5146 22.1738C21.9164 24.6453 20.1864 27.1591 18.3734 29.6445C14.6272 34.7779 12.7218 41.2539 13.0074 47.8774C13.2957 54.5526 15.7967 60.8427 20.0495 65.5875C24.6395 70.7092 30.7821 73.5302 37.3449 73.5302C43.9077 73.5302 50.0508 70.7092 54.6414 65.5875C58.8936 60.8427 61.3946 54.5526 61.6824 47.8774C61.9685 41.2539 60.0637 34.7779 56.3175 29.6445C54.504 27.1597 52.7745 24.6459 51.1763 22.1738V22.1738ZM58.1227 47.7237C57.8705 53.5763 55.6918 59.0776 51.9868 63.2101C48.0814 67.5675 42.8813 69.9677 37.3443 69.9677C31.8069 69.9677 26.6067 67.5675 22.7013 63.2101C18.9974 59.0776 16.8187 53.5774 16.5654 47.7237C16.3144 41.9029 17.9782 36.2279 21.2501 31.7436C23.1032 29.2048 24.8705 26.6359 26.5048 24.1082L37.3449 7.34266L48.1844 24.1082C49.8187 26.6359 51.5866 29.2053 53.4391 31.7442C56.711 36.2291 58.3748 41.904 58.1238 47.7243L58.1227 47.7237Z" fill="#27244F"/>
<path d="M51.2681 47.6597C50.2839 47.6597 49.4868 48.4568 49.4868 49.441C49.4868 55.0347 45.4907 59.5852 40.5789 59.5852C39.5953 59.5852 38.7976 60.3829 38.7976 61.3665C38.7976 62.3506 39.5953 63.1477 40.5789 63.1477C47.4551 63.1477 53.0493 56.9991 53.0493 49.441C53.0493 48.4568 52.2517 47.6597 51.2681 47.6597Z" fill="#27244F"/>
</svg>
