<svg width="76" height="76" viewBox="0 0 76 76" fill="none" xmlns="http://www.w3.org/2000/svg">
<path d="M38 0.742181C30.631 0.742169 23.4276 2.9273 17.3006 7.02124C11.1736 11.1152 6.39813 16.9341 3.57817 23.742C0.758207 30.55 0.0203781 38.0413 1.45798 45.2686C2.89559 52.496 6.44406 59.1347 11.6547 64.3453C18.6419 71.3325 28.1186 75.2578 38 75.2578C47.8813 75.2578 57.358 71.3325 64.3452 64.3453C71.3324 57.3581 75.2578 47.8814 75.2578 38C75.2578 28.1186 71.3324 18.6419 64.3452 11.6547C60.8936 8.18416 56.7878 5.43268 52.2657 3.55954C47.7435 1.6864 42.8947 0.728806 38 0.742181V0.742181ZM12.914 12.9141C15.3173 10.5069 18.053 8.45649 21.0377 6.82515L25.3039 10.0333C25.6801 10.3156 26.072 10.5762 26.4778 10.8138C27.7985 11.5892 28.9353 12.6418 29.8098 13.8991L32.2771 17.4571C32.6401 17.9778 32.8272 18.6008 32.8112 19.2353C32.7952 19.8698 32.5768 20.4826 32.188 20.9843L31.0437 22.4687C30.8577 22.7089 30.6123 22.8965 30.3317 23.0131C30.051 23.1296 29.7449 23.1711 29.4434 23.1334L28.1449 22.9673C27.0558 22.8272 25.9496 23.0117 24.9649 23.4978C23.9803 23.9839 23.1611 24.7499 22.6101 25.6997C22.4298 25.9978 22.1656 26.2361 21.8506 26.3847C21.5355 26.5334 21.1836 26.5859 20.8389 26.5356L17.869 26.1584C16.8123 26.0206 15.738 26.1802 14.7669 26.6191C13.7958 27.058 12.9663 27.759 12.3715 28.6432C11.804 29.4808 11.4934 30.4658 11.4778 31.4774C11.4622 32.489 11.7423 33.4831 12.2838 34.3377L14.2639 37.4644C14.9288 38.506 15.9616 39.259 17.1567 39.5733C18.3518 39.8877 19.6214 39.7403 20.7128 39.1606L22.7513 38.0684C23.1873 37.8364 23.6758 37.7208 24.1696 37.7328C24.6634 37.7448 25.1457 37.884 25.5699 38.1369L29.439 40.4584C29.7388 40.6386 30.0838 40.7294 30.4335 40.7201C31.8667 40.6802 33.2759 41.4338 34.2056 42.7298L36.0983 45.3683C36.2454 45.5731 36.4026 45.7741 36.5655 45.9659L39.0418 48.8791C39.0782 48.9212 39.1048 48.9709 39.1196 49.0245C39.1344 49.0782 39.137 49.1344 39.1273 49.1892C39.1032 49.2964 39.04 49.3907 38.95 49.4537L35.2304 52.31C34.0879 53.184 33.2472 54.3932 32.8257 55.7686L31.5756 59.8248C31.5113 60.0342 31.4059 60.2288 31.2656 60.3971L30.0485 61.8606C29.0236 63.0728 28.3927 64.5685 28.2396 66.1485C28.2227 66.3372 28.1546 66.5177 28.0426 66.6705C27.9306 66.8233 27.7791 66.9426 27.6043 67.0157C27.5899 67.022 27.5741 67.0239 27.5586 67.0213C27.5432 67.0187 27.5289 67.0115 27.5174 67.0008C27.5011 66.9784 27.4909 66.9522 27.4878 66.9247L26.3476 60.0765C26.1807 59.0809 25.774 58.1408 25.1625 57.3375L20.9627 51.8305C20.6531 51.4255 20.4242 50.9647 20.2885 50.4732L18.9024 45.4723C18.6162 44.45 18.0704 43.5191 17.3181 42.7701C16.5658 42.021 15.6326 41.4792 14.609 41.1973L14.3071 41.1148C13.8357 40.9859 13.4031 40.7437 13.0469 40.4091L10.4609 37.9755C10.1137 37.6488 9.81539 37.2739 9.57506 36.8622C8.9006 35.7031 7.89174 34.7747 6.68065 34.1987C5.46956 33.6227 4.11273 33.4259 2.78791 33.6341C3.74148 25.7865 7.30828 18.4881 12.914 12.9141V12.9141ZM63.0859 63.0859C58.1244 68.0475 51.803 71.4264 44.9212 72.7953C38.0394 74.1642 30.9061 73.4617 24.4236 70.7765C17.9411 68.0913 12.4003 63.5441 8.50213 57.7099C4.60392 51.8758 2.5233 45.0167 2.52339 38C2.52339 37.1548 2.55308 36.3146 2.61245 35.4795L2.89567 35.4236C3.88917 35.2308 4.91804 35.3522 5.83938 35.7709C6.76073 36.1897 7.52881 36.8849 8.03695 37.7601C8.36338 38.3194 8.76861 38.8289 9.24019 39.2727L11.8257 41.706C12.3944 42.2403 13.0851 42.6273 13.8377 42.8333L14.1397 42.9157C14.8658 43.1156 15.5279 43.4999 16.0616 44.0314C16.5953 44.5628 16.9824 45.2232 17.1855 45.9485L18.5716 50.9494C18.7677 51.6597 19.0985 52.3258 19.5459 52.9113L23.7458 58.4183C24.1814 58.9906 24.4712 59.6603 24.5901 60.3695L25.7316 67.2183C25.7977 67.6598 26.0203 68.0629 26.3589 68.3539C26.6974 68.6449 27.1293 68.8044 27.5758 68.8034C27.8224 68.8035 28.0666 68.7543 28.2941 68.6589C28.7673 68.4611 29.1776 68.1379 29.4807 67.7241C29.7838 67.3103 29.9682 66.8216 30.014 66.3107C30.1349 65.0903 30.6249 63.9356 31.4185 63.0006L32.6357 61.5371C32.9263 61.1881 33.1446 60.7848 33.278 60.3507L34.5283 56.2945C34.8415 55.2721 35.4663 54.3733 36.3155 53.7235L40.035 50.8674C40.4875 50.5285 40.7923 50.0286 40.8866 49.4712C40.9364 49.1625 40.9186 48.8466 40.8345 48.5454C40.7504 48.2442 40.602 47.9648 40.3994 47.7265L37.9228 44.8133C37.7912 44.6586 37.6645 44.4964 37.5459 44.331L35.653 41.6925C34.3788 39.9163 32.4102 38.8871 30.3872 38.9405C30.376 38.9407 30.365 38.9378 30.3554 38.932L26.4863 36.6105C25.7974 36.1998 25.0143 35.9739 24.2127 35.9544C23.411 35.935 22.6178 36.1227 21.9099 36.4994L19.8716 37.5915C19.1772 37.9603 18.3695 38.054 17.6091 37.8541C16.8488 37.6541 16.1917 37.175 15.7686 36.5124L13.7885 33.3857C13.4326 32.824 13.2486 32.1706 13.2589 31.5058C13.2691 30.841 13.4733 30.1937 13.8464 29.6433C14.2572 29.0323 14.8302 28.548 15.5011 28.2447C16.1719 27.9415 16.9141 27.8312 17.6441 27.9264L20.6145 28.3036C21.3064 28.3983 22.0108 28.2869 22.6396 27.9833C23.2685 27.6796 23.7938 27.1973 24.1498 26.5966C24.5252 25.9496 25.0833 25.4278 25.754 25.0968C26.4247 24.7657 27.1783 24.64 27.9202 24.7355L29.2187 24.9016C29.8283 24.9777 30.4473 24.8938 31.0147 24.6581C31.5821 24.4224 32.0783 24.043 32.4546 23.5573L33.5989 22.0729C34.2195 21.2722 34.5679 20.2942 34.5935 19.2815C34.619 18.2688 34.3204 17.2744 33.741 16.4435L31.2735 12.8844C30.2508 11.4145 28.9216 10.1839 27.3775 9.27734C27.0304 9.07398 26.6952 8.85096 26.3736 8.60937L22.8023 5.92339C28.761 3.11206 35.3835 2.01133 41.9313 2.74398C48.479 3.47664 54.6944 6.01386 59.8844 10.0727L58.9575 11.3659C56.7095 13.8191 54.7285 16.5043 53.0478 19.3761L51.7012 21.6784C51.4281 22.1613 51.3122 22.7172 51.3696 23.269C51.427 23.8207 51.6548 24.3409 52.0214 24.7573C52.6775 25.5079 53.5875 25.9901 54.577 26.1115L55.2238 26.191C56.2886 26.3226 57.2923 26.7603 58.1133 27.4511C58.9343 28.1419 59.5372 29.056 59.8489 30.0826C60.1476 31.0742 60.156 32.1306 59.8732 33.1268C59.5905 34.1231 59.0283 35.0175 58.2532 35.7043L51.8789 41.3633C51.4765 41.7246 51.1559 42.1676 50.9383 42.6627C50.7207 43.1578 50.6112 43.6936 50.6171 44.2344V45.7364C50.6098 46.2424 50.7306 46.742 50.9683 47.1887C51.206 47.6354 51.5529 48.0146 51.9767 48.2912C52.6359 48.7162 53.19 49.2855 53.5971 49.956C54.0042 50.6265 54.2537 51.3807 54.3267 52.1617L54.4685 53.6251C54.5312 54.2712 54.8346 54.87 55.3184 55.3027C55.8021 55.7354 56.431 55.9704 57.08 55.9609H60.8304C61.9368 55.968 63.0212 55.6519 63.9504 55.0513C64.8797 54.4508 65.6133 53.5919 66.0613 52.5803L66.2866 52.0848C66.6781 51.186 67.3149 50.4157 68.124 49.8622C68.9331 49.3088 69.8818 48.9945 70.8613 48.9554L71.7437 48.92L71.771 48.9182C70.044 54.2643 67.0666 59.1214 63.0859 63.0859V63.0859ZM72.3062 47.0859L71.8683 47.1304C71.7992 47.1374 71.7297 47.1423 71.662 47.1452L70.7807 47.1852C69.4683 47.2398 68.1978 47.6628 67.1145 48.4058C66.0313 49.1489 65.1792 50.1819 64.6558 51.3867L64.4304 51.8645C64.1215 52.5594 63.6161 53.1488 62.9764 53.5602C62.3368 53.9715 61.5908 54.1869 60.8304 54.1797H57.08C56.8723 54.1881 56.6692 54.1172 56.5119 53.9814C56.3546 53.8456 56.2548 53.655 56.2328 53.4483L56.0829 51.9669C55.9869 50.9216 55.6542 49.9119 55.1101 49.0142C54.566 48.1165 53.8247 47.3544 52.9424 46.7857C52.7696 46.672 52.6288 46.5159 52.5335 46.3322C52.4383 46.1485 52.3918 45.9435 52.3984 45.7367V44.2344C52.3924 43.946 52.4483 43.6596 52.5622 43.3946C52.6761 43.1296 52.8454 42.892 53.0588 42.6979L59.4492 37.0392C60.4785 36.1255 61.2246 34.9361 61.599 33.6117C61.9734 32.2872 61.9606 30.8833 61.562 29.5659C61.1493 28.209 60.3519 27.001 59.2664 26.0882C58.1809 25.1754 56.854 24.597 55.4464 24.4232L54.7977 24.3436C54.2426 24.2756 53.7321 24.0052 53.3638 23.5843C53.2431 23.4474 53.1671 23.2769 53.1458 23.0955C53.1246 22.9142 53.1592 22.7307 53.2451 22.5696L54.5867 20.2755C56.2123 17.4977 58.13 14.9014 60.3071 12.5309C60.3316 12.5044 60.3543 12.4764 60.3753 12.4471L61.2606 11.2118C61.8848 11.7559 62.4932 12.3234 63.0859 12.9141C66.3905 16.2008 69.0104 20.1102 70.7939 24.4162C72.5775 28.7223 73.4893 33.3392 73.4765 38C73.4785 41.0663 73.0851 44.12 72.3061 47.0857L72.3062 47.0859Z" fill="#27244F"/>
</svg>
