<svg width="76" height="76" viewBox="0 0 76 76" fill="none" xmlns="http://www.w3.org/2000/svg">
<path d="M50.8472 34.5819C48.7687 30.3581 47.6794 25.7174 47.6616 21.0104V14.7488H50.0201C50.9591 14.7693 51.7378 14.0251 51.7584 13.0855C51.7584 13.0644 51.7584 13.0426 51.7584 13.0209V4.06125C51.779 3.09715 51.0125 2.29948 50.0484 2.28H24.9974C24.0338 2.28334 23.2551 3.06765 23.2584 4.03175V13.0209C23.244 13.9605 23.9932 14.7343 24.9328 14.7488H27.3553V21.0104C27.3381 25.7174 26.2487 30.3581 24.1702 34.5819L10.8999 61.5767C9.63411 64.1456 9.78384 67.1854 11.2957 69.6174C12.8075 72.0493 15.4677 73.5283 18.3316 73.53H56.6858C59.5509 73.5328 62.2138 72.0549 63.7262 69.6218C65.2397 67.1882 65.3872 64.1456 64.117 61.5773L50.8472 34.5819ZM26.8209 5.8425H48.1959V11.1863H26.8209V5.8425ZM27.3681 36.1655C29.686 31.4485 30.9 26.2656 30.9178 21.0104V14.7488H44.0991V21.0104C44.1174 26.2656 45.3315 31.4485 47.6493 36.1655L50.6285 42.18H24.3884L27.3681 36.1655ZM60.7037 67.7365C59.8431 69.1281 58.3223 69.9731 56.6858 69.9675H18.3316C16.6995 69.9686 15.1816 69.1275 14.3177 67.7437C13.4527 66.3588 13.3636 64.6265 14.0817 63.1604L22.6395 45.7425H52.378L60.9358 63.1604C61.6611 64.6215 61.5737 66.356 60.7037 67.7365Z" fill="#27244F"/>
</svg>
