<svg width="76" height="76" viewBox="0 0 76 76" fill="none" xmlns="http://www.w3.org/2000/svg">
<path d="M56.284 7.11777H44.8333C43.5358 4.17759 40.6245 2.28 37.4105 2.28C34.1959 2.28 31.2846 4.17759 29.9871 7.11777H18.5359C14.2164 7.12278 10.7162 10.6235 10.7112 14.943V65.7048C10.7162 70.0244 14.2164 73.5251 18.5359 73.5301H56.284C60.6035 73.5251 64.1042 70.0244 64.1092 65.7048V14.943C64.1042 10.6235 60.6035 7.12278 56.284 7.11777V7.11777ZM31.2757 10.6803C32.1118 10.6803 32.8354 10.0986 33.0152 9.28088C33.4528 7.28922 35.3014 5.8425 37.4105 5.8425C39.5196 5.8425 41.3676 7.28922 41.8052 9.28088C41.9844 10.0986 42.708 10.6803 43.5452 10.6803H47.0771V12.2433C47.0743 14.5962 45.1678 16.5027 42.8149 16.5055H32.0055C29.652 16.5027 27.7455 14.5962 27.7427 12.2433V10.6803H31.2757ZM60.5467 65.7048C60.5445 68.0583 58.6374 69.9654 56.284 69.9676H18.5359C16.183 69.9654 14.2765 68.0583 14.2737 65.7048V14.943C14.2765 12.5896 16.183 10.6831 18.5359 10.6803H24.1802V12.2433C24.1852 16.5629 27.686 20.063 32.0055 20.068H42.8149C47.1344 20.063 50.6346 16.5629 50.6396 12.2433V10.6803H56.284C58.6374 10.6831 60.5439 12.5896 60.5467 14.943V65.7048Z" fill="#27244F"/>
<path d="M46.2261 35.1914L34.5322 46.6093L28.5939 40.813C27.8954 40.1294 26.7765 40.1377 26.0868 40.8302C25.3977 41.5232 25.3949 42.6421 26.0813 43.3379L26.1052 43.3613L33.287 50.3738C33.9794 51.0496 35.0844 51.0496 35.7763 50.3738L48.7143 37.7414C49.414 37.0534 49.4251 35.9295 48.7405 35.2276C48.0547 34.5257 46.9314 34.5101 46.2261 35.1925V35.1914Z" fill="#27244F"/>
</svg>
