<svg width="76" height="76" viewBox="0 0 76 76" fill="none" xmlns="http://www.w3.org/2000/svg">
<path d="M60.6192 2.30714H20.5326C15.8489 2.30926 12.0521 6.10555 12.0505 10.7893V14.4536H8.06386C7.12658 14.4536 6.36743 15.2133 6.36743 16.15C6.36743 17.0867 7.12658 17.8464 8.06386 17.8464H12.033V28.975H8.06386C7.12658 28.975 6.36743 29.7342 6.36743 30.6714C6.36743 31.6082 7.12658 32.3679 8.06386 32.3679H12.033V43.4964H8.06386C7.12658 43.4964 6.36743 44.2561 6.36743 45.1929C6.36743 46.1301 7.12658 46.8893 8.06386 46.8893H12.033V58.0179H8.06386C7.12658 58.0179 6.36743 58.7775 6.36743 59.7143C6.36743 60.651 7.12658 61.4107 8.06386 61.4107H12.033V65.075C12.0351 69.7587 15.8314 73.555 20.5151 73.5571H60.6017C65.2855 73.555 69.0828 69.7587 69.0839 65.075V10.7893C69.0908 6.10873 65.2998 2.31032 60.6192 2.30714V2.30714ZM15.4433 65.075V61.4107H19.4124C20.3497 61.4107 21.1089 60.651 21.1089 59.7143C21.1089 58.7775 20.3497 58.0179 19.4124 58.0179H15.4433V46.8893H19.4124C20.3497 46.8893 21.1089 46.1301 21.1089 45.1929C21.1089 44.2561 20.3497 43.4964 19.4124 43.4964H15.4433V32.3679H19.4124C20.3497 32.3679 21.1089 31.6082 21.1089 30.6714C21.1089 29.7342 20.3497 28.975 19.4124 28.975H15.4433V17.8464H19.4124C20.3497 17.8464 21.1089 17.0867 21.1089 16.15C21.1089 15.2133 20.3497 14.4536 19.4124 14.4536H15.4433V10.7893C15.4513 7.98223 17.7256 5.70795 20.5326 5.7H29.9648V70.1643H20.5326C17.7229 70.1622 15.4449 67.8847 15.4433 65.075ZM65.7085 65.075C65.7 67.8821 63.4263 70.1563 60.6192 70.1643H33.3576V5.7H60.6192C63.4263 5.70795 65.7 7.98223 65.7085 10.7893V65.075Z" fill="#27244F"/>
</svg>
