<svg width="38" height="38" viewBox="0 0 38 38" fill="none" xmlns="http://www.w3.org/2000/svg">
<path d="M32.3088 3.07565C30.4499 1.22169 27.4396 1.22169 25.5806 3.07565L23.8964 4.76754L5.96811 22.6699L5.93001 22.7082C5.92078 22.7174 5.92078 22.7272 5.91096 22.7272C5.89191 22.7558 5.86333 22.7841 5.84458 22.8126C5.84458 22.8221 5.83476 22.8221 5.83476 22.8316C5.8157 22.8602 5.80648 22.8792 5.78713 22.9078C5.7779 22.9173 5.7779 22.9265 5.76837 22.9363C5.75885 22.9649 5.74932 22.9839 5.7395 23.0125C5.7395 23.0217 5.73027 23.0217 5.73027 23.0315L1.75253 34.982C1.63584 35.3222 1.72454 35.699 1.98084 35.9515C2.16093 36.1291 2.40382 36.2284 2.65655 36.2275C2.75984 36.2257 2.86223 36.2097 2.96106 36.1799L14.9134 32.1963C14.9226 32.1963 14.9226 32.1963 14.9324 32.1871C14.9625 32.1782 14.9913 32.1654 15.0178 32.1487C15.0253 32.1478 15.0318 32.1446 15.0372 32.1395C15.0655 32.1205 15.1036 32.1012 15.1321 32.0821C15.1604 32.0634 15.1893 32.0348 15.2179 32.0158C15.2274 32.006 15.2366 32.006 15.2366 31.9968C15.2464 31.9873 15.2655 31.978 15.275 31.9587L34.8875 12.3642C36.7432 10.507 36.7432 7.49941 34.8875 5.64247L32.3088 3.07565ZM14.6088 29.962L7.98571 23.3452L24.5626 6.78358L31.1857 13.4003L14.6088 29.962ZM7.05282 25.104L12.8389 30.8845L4.15054 33.7746L7.05282 25.104ZM33.5459 11.0331L32.5371 12.0505L25.9137 5.43311L26.9323 4.41601C28.0465 3.30376 29.8525 3.30376 30.9669 4.41601L33.5552 7.00187C34.661 8.12008 34.6568 9.92021 33.5459 11.0331Z" fill="#27244F"/>
</svg>