<svg width="76" height="76" viewBox="0 0 76 76" fill="none" xmlns="http://www.w3.org/2000/svg">
<path d="M60.6696 3.95822C58.6174 1.91044 55.294 1.91044 53.2413 3.95822L43.9155 13.2846L41.7964 11.166C41.1125 10.4822 40.0042 10.4822 39.3209 11.166L4.95112 45.5336C1.53175 48.953 1.53175 54.4963 4.95112 57.9146L18.1438 71.1073C21.5654 74.5212 27.1038 74.5212 30.5248 71.1073L64.8929 36.7392C65.5768 36.0553 65.5768 34.9464 64.8929 34.2631L62.7749 32.1446L72.1007 22.8177C74.1485 20.765 74.1485 17.4427 72.1007 15.3894L60.6696 3.95822ZM28.0487 68.6317C25.9955 70.6795 22.6732 70.6795 20.6199 68.6317L7.42777 55.4385C5.37889 53.3863 5.37889 50.0629 7.42777 48.0102L15.9128 39.5241L36.5338 60.1461L28.0487 68.6317ZM39.0104 57.6695L18.3889 37.0485L40.5581 14.8799L61.179 35.5003L39.0104 57.6695ZM69.6246 20.341L60.2983 29.6674L46.391 15.7601L55.7174 6.43267C56.4012 5.7499 57.509 5.7499 58.1929 6.43267L69.6246 17.866C70.3063 18.5499 70.3063 19.6572 69.6246 20.341Z" fill="#27244F"/>
<path d="M53.9828 14.2043L56.0393 12.1477L58.516 14.6243L56.4594 16.6798L53.9828 14.2043Z" fill="#27244F"/>
<path d="M59.3785 19.5996L61.4351 17.543L63.9117 20.0191L61.8552 22.0757L59.3785 19.5996Z" fill="#27244F"/>
</svg>
