<svg width="76" height="76" viewBox="0 0 76 76" fill="none" xmlns="http://www.w3.org/2000/svg">
<path d="M70.6352 17.0629L59.0559 5.48356C55.0282 1.47203 48.5154 1.47203 44.4884 5.48356L42.1322 7.83912C41.7601 8.21125 41.5529 8.71734 41.5585 9.2439C41.5622 9.76922 41.7681 10.2728 42.1322 10.6499L44.1708 12.6886L37.916 18.9434H31.1861C28.4547 18.9347 25.8318 20.0176 23.9023 21.9527L19.4684 26.3859C19.0963 26.7587 18.8891 27.2648 18.8947 27.7913C18.8984 28.316 19.1044 28.819 19.4684 29.1961L31.8001 41.5278L2.96087 70.3279C2.58936 70.6975 2.38159 71.1999 2.38159 71.7234C2.38159 72.2468 2.58936 72.7486 2.96087 73.1188C3.33176 73.4928 3.83909 73.7 4.36565 73.6925C4.89159 73.6907 5.39458 73.4848 5.77105 73.1188L34.591 44.2989L46.9221 56.6305C47.2942 57.0045 47.8009 57.2117 48.3275 57.2042C48.8528 57.2024 49.357 56.9964 49.7335 56.6305L54.1668 52.1966C56.1012 50.2672 57.1847 47.6449 57.1754 44.9129V38.183L63.4302 31.9281L65.4695 33.9668C65.8391 34.3376 66.3409 34.546 66.8643 34.546C67.3884 34.546 67.8902 34.3376 68.2598 33.9668L70.616 31.6112C74.6294 27.596 74.6381 21.0893 70.6352 17.0629V17.0629ZM67.8244 28.8209L66.8743 29.771L64.8356 27.7318C64.4635 27.359 63.9568 27.1531 63.4302 27.1575C62.9055 27.1612 62.4019 27.3671 62.0248 27.7318L53.7909 35.9657C53.4182 36.3385 53.211 36.8445 53.2166 37.3711V44.9129C53.2247 46.5992 52.5542 48.2186 51.3566 49.4063L48.3275 52.4348L23.6648 27.7715L26.6933 24.743C27.881 23.5454 29.4997 22.8749 31.1861 22.8823H38.7278C39.2525 22.8786 39.7555 22.6727 40.1332 22.308L48.3672 14.0741C48.7399 13.7014 48.9464 13.1953 48.9415 12.6687C48.9378 12.1446 48.7318 11.641 48.3672 11.2639L46.3285 9.22467L47.2787 8.27451C49.7602 5.79367 53.7835 5.79367 56.2656 8.27451L67.8449 19.8539C70.3034 22.3403 70.2941 26.345 67.8244 28.8209V28.8209Z" fill="#27244F"/>
</svg>
