<svg width="76" height="76" viewBox="0 0 76 76" fill="none" xmlns="http://www.w3.org/2000/svg">
<path d="M37.5014 37.8591C47.3228 37.8591 55.2837 29.8977 55.2837 20.0768C55.2837 10.2563 47.3228 2.29449 37.5014 2.29449C27.681 2.29449 19.7191 10.2563 19.7191 20.0768C19.7267 29.8944 27.6838 37.8515 37.5014 37.8591V37.8591ZM37.5014 5.30837C45.6581 5.30837 52.2698 11.9201 52.2698 20.0768C52.2698 28.2334 45.6581 34.8452 37.5014 34.8452C29.3457 34.8452 22.733 28.2334 22.733 20.0768C22.7467 11.9262 29.3509 5.32158 37.5014 5.30837Z" fill="#27244F"/>
<path d="M37.5014 42.3046C29.7712 42.3046 22.5825 45.3034 17.2482 50.7589C11.838 56.2895 8.8689 63.839 8.8689 72.0377C8.87126 72.8689 9.54488 73.542 10.3761 73.5444H64.6272C65.4589 73.542 66.1316 72.8689 66.1339 72.0377C66.1339 63.8546 63.1653 56.2895 57.7556 50.774C52.4208 45.3185 45.2326 42.3046 37.5014 42.3046V42.3046ZM11.9134 70.5305C12.2451 63.7192 14.882 57.4952 19.388 52.8836C24.1501 48.0158 30.5849 45.334 37.4868 45.334C44.3887 45.334 50.8235 48.0158 55.5851 52.8836C60.1062 57.4952 62.7285 63.7192 63.0601 70.5305H11.9134Z" fill="#27244F"/>
</svg>
