<svg width="76" height="76" viewBox="0 0 76 76" fill="none" xmlns="http://www.w3.org/2000/svg">
<path d="M60.6579 4.27175C58.1947 1.81417 54.207 1.81417 51.7444 4.27175L4.26079 51.7554C1.80321 54.2191 1.80321 58.2063 4.26079 60.6694L15.4265 71.8351C17.8896 74.2927 21.8768 74.2927 24.3405 71.8351L71.8242 24.3515C74.2812 21.8883 74.2812 17.9012 71.8242 15.4375L60.6579 4.27175ZM69.3058 21.832L21.8204 69.3167C20.7496 70.3848 19.0163 70.3848 17.9454 69.3167L6.77975 58.1499C5.71168 57.0791 5.71168 55.3458 6.77975 54.2755L16.7764 44.2778L23.5665 51.0679C24.2624 51.7632 25.3902 51.7632 26.0855 51.0674C26.7814 50.372 26.7814 49.2443 26.0855 48.5484L19.2959 41.7588L27.5866 33.4681L32.4275 38.309C33.1234 39.0043 34.2512 39.0043 34.9471 38.3085C35.6424 37.6132 35.6424 36.4854 34.9471 35.7895L30.1061 30.948L38.3974 22.6579L45.187 29.4475C45.8823 30.1433 47.0106 30.1433 47.7065 29.4475C48.4018 28.7516 48.4018 27.6232 47.7065 26.9274L40.9163 20.1383L49.2076 11.8471L54.0486 16.688C54.4939 17.1523 55.1546 17.3409 55.7785 17.1802C56.4018 17.02 56.8895 16.5357 57.0552 15.9135C57.221 15.2924 57.0385 14.6289 56.5781 14.1796L51.7266 9.3281L54.2634 6.79072C55.3343 5.72264 57.0675 5.72264 58.1384 6.79072L69.3058 17.9575C70.3738 19.0273 70.3738 20.7611 69.3058 21.832V21.832Z" fill="#27244F"/>
<path d="M16.3712 57.0846C15.6748 56.3938 14.5509 56.396 13.8573 57.0902C13.1642 57.7833 13.1614 58.9072 13.8517 59.6036L16.4917 62.2437C17.1882 62.934 18.312 62.9317 19.0057 62.2381C19.6999 61.545 19.7016 60.4211 19.0113 59.7247L16.3712 57.0846Z" fill="#27244F"/>
</svg>
